<?xml version="1.0" encoding="UTF-8"?>
<svg xmlns="http://www.w3.org/2000/svg" xmlns:xlink="http://www.w3.org/1999/xlink" viewBox="0 0 810 805">
  <defs>
    <style>
      .cls-1 {
        clip-path: url(#clippath-2);
      }

      .cls-2, .cls-3 {
        stroke-width: 0px;
      }

      .cls-3, .cls-4 {
        fill: none;
      }

      .cls-5 {
        clip-path: url(#clippath-1);
      }

      .cls-4 {
        stroke: #000;
        stroke-miterlimit: 10;
        stroke-width: 10px;
      }

      .cls-6 {
        clip-path: url(#clippath);
      }
    </style>
    <clipPath id="clippath">
      <rect class="cls-3" x="5" y="5" width="200" height="800"/>
    </clipPath>
    <clipPath id="clippath-1">
      <rect class="cls-3" x="5" y="5" width="400" height="800"/>
    </clipPath>
    <clipPath id="clippath-2">
      <rect class="cls-3" x="5" y="5" width="600" height="800"/>
    </clipPath>
  </defs>
  <g id="Layer_1" data-name="Layer 1">
    <path class="cls-4" d="m803.22,294.34c-4.28-13.17-15.66-22.77-29.36-24.75l-232.34-33.76L437.62,25.28c-6.13-12.41-18.77-20.28-32.61-20.28s-26.49,7.86-32.61,20.28l-103.9,210.55-232.34,33.76c-13.7,1.99-25.08,11.59-29.36,24.75-4.28,13.17-.71,27.62,9.2,37.28l168.12,163.86-39.7,231.42c-2.34,13.65,3.27,27.44,14.47,35.57,6.34,4.6,13.84,6.95,21.38,6.95,5.79,0,11.6-1.38,16.92-4.18l207.82-109.25,207.82,109.25c5.35,2.82,11.22,4.16,17.02,4.18,20.06-.03,36.32-16.3,36.32-36.37,0-2.79-.32-5.52-.91-8.13l-39.36-229.44,168.12-163.87c9.92-9.66,13.48-24.12,9.21-37.28Z"/>
  </g>
  <g id="Layer_2" data-name="Layer 2">
    <g class="cls-6">
      <path class="cls-2" d="m803.22,294.34c-4.28-13.17-15.66-22.77-29.36-24.75l-232.34-33.76L437.62,25.28c-6.13-12.41-18.77-20.28-32.61-20.28s-26.49,7.86-32.61,20.28l-103.9,210.55-232.34,33.76c-13.7,1.99-25.08,11.59-29.36,24.75-4.28,13.17-.71,27.62,9.2,37.28l168.12,163.86-39.7,231.42c-2.34,13.65,3.27,27.44,14.47,35.57,6.34,4.6,13.84,6.95,21.38,6.95,5.79,0,11.6-1.38,16.92-4.18l207.82-109.25,207.82,109.25c5.35,2.82,11.22,4.16,17.02,4.18,20.06-.03,36.32-16.3,36.32-36.37,0-2.79-.32-5.52-.91-8.13l-39.36-229.44,168.12-163.87c9.92-9.66,13.48-24.12,9.21-37.28Z"/>
    </g>
  </g>
  <g id="Layer_3" data-name="Layer 3">
    <path class="cls-4" d="m803.22,294.34c-4.28-13.17-15.66-22.77-29.36-24.75l-232.34-33.76L437.61,25.28c-6.13-12.41-18.77-20.28-32.61-20.28s-26.49,7.86-32.61,20.28l-103.9,210.55-232.34,33.76c-13.7,1.99-25.08,11.59-29.36,24.75-4.28,13.17-.71,27.62,9.2,37.28l168.12,163.86-39.7,231.42c-2.34,13.65,3.27,27.44,14.47,35.57,6.34,4.6,13.84,6.95,21.38,6.95,5.79,0,11.6-1.38,16.92-4.18l207.82-109.25,207.82,109.25c5.35,2.82,11.22,4.16,17.02,4.18,20.06-.03,36.32-16.3,36.32-36.37,0-2.79-.32-5.52-.91-8.13l-39.36-229.44,168.12-163.87c9.92-9.66,13.48-24.12,9.21-37.28Z"/>
    <g class="cls-5">
      <path class="cls-2" d="m803.22,294.34c-4.28-13.17-15.66-22.77-29.36-24.75l-232.34-33.76L437.61,25.28c-6.13-12.41-18.77-20.28-32.61-20.28s-26.49,7.86-32.61,20.28l-103.9,210.55-232.34,33.76c-13.7,1.99-25.08,11.59-29.36,24.75-4.28,13.17-.71,27.62,9.2,37.28l168.12,163.86-39.7,231.42c-2.34,13.65,3.27,27.44,14.47,35.57,6.34,4.6,13.84,6.95,21.38,6.95,5.79,0,11.6-1.38,16.92-4.18l207.82-109.25,207.82,109.25c5.35,2.82,11.22,4.16,17.02,4.18,20.06-.03,36.32-16.3,36.32-36.37,0-2.79-.32-5.52-.91-8.13l-39.36-229.44,168.12-163.87c9.92-9.66,13.48-24.12,9.21-37.28Z"/>
    </g>
  </g>
  <g id="Layer_4" data-name="Layer 4">
    <g class="cls-1">
      <path class="cls-2" d="m803.22,294.34c-4.28-13.17-15.66-22.77-29.36-24.75l-232.34-33.76L437.61,25.28c-6.13-12.41-18.77-20.28-32.61-20.28s-26.49,7.86-32.61,20.28l-103.9,210.55-232.34,33.76c-13.7,1.99-25.08,11.59-29.36,24.75-4.28,13.17-.71,27.62,9.2,37.28l168.12,163.86-39.7,231.42c-2.34,13.65,3.27,27.44,14.47,35.57,6.34,4.6,13.84,6.95,21.38,6.95,5.79,0,11.6-1.38,16.92-4.18l207.82-109.25,207.82,109.25c5.35,2.82,11.22,4.16,17.02,4.18,20.06-.03,36.32-16.3,36.32-36.37,0-2.79-.32-5.52-.91-8.13l-39.36-229.44,168.12-163.87c9.92-9.66,13.48-24.12,9.21-37.28Z"/>
    </g>
  </g>
</svg>